<?xml version="1.0" encoding="utf-8"?>
<!-- Generator: Adobe Illustrator 12.0.0, SVG Export Plug-In . SVG Version: 6.00 Build 51448)  -->
<!DOCTYPE svg PUBLIC "-//W3C//DTD SVG 1.1//EN" "http://www.w3.org/Graphics/SVG/1.1/DTD/svg11.dtd" [
	<!ENTITY ns_svg "http://www.w3.org/2000/svg">
	<!ENTITY ns_xlink "http://www.w3.org/1999/xlink">
]>
<svg  version="1.1" id="Layer_1" xmlns="&ns_svg;" xmlns:xlink="&ns_xlink;" width="65.923" height="63.946"
	 viewBox="0 0 65.923 63.946" overflow="visible" enable-background="new 0 0 65.923 63.946" xml:space="preserve">
<g>
	<path fill-rule="evenodd" clip-rule="evenodd" fill="#2E75B6" d="M0,43.539c0,1.607,14.747,2.91,32.97,2.91
		c18.207,0,32.953-1.303,32.953-2.91v17.497c0,1.607-14.746,2.91-32.953,2.91C14.747,63.946,0,62.643,0,61.036V43.539z"/>
	<path fill-rule="evenodd" clip-rule="evenodd" fill="#82ACD3" d="M0,43.539c0-1.624,14.747-2.927,32.97-2.927
		c18.207,0,32.953,1.303,32.953,2.927c0,1.607-14.746,2.91-32.953,2.91C14.747,46.449,0,45.146,0,43.539"/>
	<path fill-rule="evenodd" clip-rule="evenodd" fill="#2E75B6" d="M0,23.385c0,1.625,14.747,2.928,32.97,2.928
		c18.207,0,32.953-1.303,32.953-2.928v17.514c0,1.607-14.746,2.91-32.953,2.91C14.747,43.809,0,42.506,0,40.899V23.385z"/>
	<path fill-rule="evenodd" clip-rule="evenodd" fill="#82ACD3" d="M0,23.385c0-1.607,14.747-2.91,32.97-2.91
		c18.207,0,32.953,1.303,32.953,2.91c0,1.625-14.746,2.928-32.953,2.928C14.747,26.313,0,25.01,0,23.385"/>
	<path fill-rule="evenodd" clip-rule="evenodd" fill="#2E75B6" d="M0,2.927c0,1.607,14.747,2.911,32.97,2.911
		c18.207,0,32.953-1.303,32.953-2.911v17.497c0,1.607-14.746,2.91-32.953,2.91C14.747,23.334,0,22.032,0,20.424V2.927z"/>
	<path fill-rule="evenodd" clip-rule="evenodd" fill="#82ACD3" d="M0,2.927C0,1.303,14.747,0,32.97,0
		c18.207,0,32.953,1.303,32.953,2.927c0,1.607-14.746,2.911-32.953,2.911C14.747,5.838,0,4.535,0,2.927"/>
</g>
<path d="M46.128,24.94h-2.195v-4.389c0-6.056-4.916-10.972-10.971-10.972S21.99,14.496,21.99,20.551v4.389h-2.194
	c-2.414,0-4.388,1.975-4.388,4.388V51.27c0,2.414,1.975,4.39,4.388,4.39h26.332c2.414,0,4.389-1.976,4.389-4.39V29.328
	C50.517,26.915,48.542,24.94,46.128,24.94z M32.961,44.688c-2.413,0-4.388-1.975-4.388-4.389s1.975-4.388,4.388-4.388
	c2.415,0,4.389,1.974,4.389,4.388S35.376,44.688,32.961,44.688z M39.764,24.94H26.16v-4.389c0-3.752,3.05-6.802,6.802-6.802
	c3.752,0,6.802,3.05,6.802,6.802V24.94z"/>
</svg>
